<?xml version="1.0" encoding="UTF-8"?>
<svg width="375px" height="812px" viewBox="0 0 375 812" version="1.1" xmlns="http://www.w3.org/2000/svg" xmlns:xlink="http://www.w3.org/1999/xlink">
    <!-- Generator: Sketch 48.2 (47327) - http://www.bohemiancoding.com/sketch -->
    <title>Screen</title>
    <desc>Created with Sketch.</desc>
    <defs>
        <path d="M106,30 L269,30 C282.254834,30 293,19.254834 293,4.75 C293.135669,2.18624045 295.18624,0.135669138 297.743536,0.00646367867 L337,0 C357.98682,-7.10542736e-15 375,17.0131795 375,38 L375,774 C375,794.98682 357.98682,812 337,812 L38,812 C17.0131795,812 0,794.98682 0,774 L0,38 C0,17.0131795 17.0131795,7.10542736e-15 38,0 L77.25,0 C79.8137596,0.135669138 81.8643309,2.18624045 81.9935363,4.74353632 C82,19.254834 92.745166,30 106,30 Z" id="path-1"></path>
    </defs>
    <g id="iPhoneX_Mockup" stroke="none" stroke-width="1" fill="none" fill-rule="evenodd" transform="translate(-239.000000, -119.000000)">
        <g id="iPhone_X_Clay_Black" transform="translate(210.000000, 93.000000)">
            <g id="Screen" transform="translate(29.000000, 26.000000)">
                <mask id="mask-2" fill="white">
                    <use xlink:href="#path-1"></use>
                </mask>
                <use fill="#000000" xlink:href="#path-1"></use>
            </g>
        </g>
    </g>
</svg>