<?xml version="1.0" encoding="UTF-8"?>
<svg width="54px" height="31px" viewBox="0 0 54 31" version="1.1" xmlns="http://www.w3.org/2000/svg" xmlns:xlink="http://www.w3.org/1999/xlink">
    <!-- Generator: Sketch 53.1 (72631) - https://sketchapp.com -->
    <title>Group 5</title>
    <desc>Created with Sketch.</desc>
    <g id="Page-1" stroke="none" stroke-width="1" fill="none" fill-rule="evenodd">
        <g id="Group-5" transform="translate(0.000000, -0.015267)" fill="#FFFFFF">
            <path d="M38.667,0.1493 L15.658,0.1493 C7.371,0.1493 0.653,6.8673 0.653,15.1553 C0.653,23.4423 7.371,30.1603 15.658,30.1603 L38.667,30.1603 C46.954,30.1603 53.673,23.4423 53.673,15.1553 C53.673,6.8673 46.954,0.1493 38.667,0.1493 M38.667,5.8493 C43.798,5.8493 47.973,10.0243 47.973,15.1553 C47.973,20.2863 43.798,24.4603 38.667,24.4603 L15.658,24.4603 C10.527,24.4603 6.354,20.2863 6.354,15.1553 C6.354,10.0243 10.527,5.8493 15.658,5.8493 L38.667,5.8493" id="Fill-1" opacity="0.4"></path>
            <path d="M38.7168,0.1493 L27.2628,0.1493 L26.8838,0.1493 C25.3108,0.1493 24.0338,1.4253 24.0338,2.9993 C24.0338,4.5723 25.3108,5.8483 26.8838,5.8483 L27.2628,5.8513 L38.7168,5.8513 C43.8558,5.8513 48.0208,10.0173 48.0208,15.1553 C48.0208,20.2933 43.8558,24.4583 38.7168,24.4583 L27.2228,24.4583 C25.6488,24.4583 24.3728,25.7343 24.3728,27.3073 C24.3728,28.8783 25.6438,30.1553 27.2128,30.1603 L38.7168,30.1603 C47.0048,30.1603 53.7228,23.4423 53.7228,15.1553 C53.7228,6.8673 47.0048,0.1493 38.7168,0.1493" id="Fill-3"></path>
        </g>
    </g>
</svg>