<?xml version="1.0" encoding="UTF-8"?>
<svg width="38px" height="38px" viewBox="0 0 38 38" version="1.1" xmlns="http://www.w3.org/2000/svg" xmlns:xlink="http://www.w3.org/1999/xlink">
    <!-- Generator: Sketch 53.1 (72631) - https://sketchapp.com -->
    <title>Shape</title>
    <desc>Created with Sketch.</desc>
    <g id="Features" stroke="none" stroke-width="1" fill="none" fill-rule="evenodd">
        <g id="Metomic-/-Features" transform="translate(-608.000000, -1338.000000)" fill="#FFFFFF" fill-rule="nonzero">
            <g id="Group-8" transform="translate(243.000000, 847.000000)">
                <g id="Group-2" transform="translate(308.000000, 455.000000)">
                    <g id="22-check" transform="translate(15.000000, 36.000000)">
                        <path d="M61,0 C50.5065898,-6.42536064e-16 42,8.50658975 42,19 C42,29.4934102 50.5065898,38 61,38 C71.4934102,38 80,29.4934102 80,19 C80,13.9608867 77.99822,9.12816235 74.4350288,5.56497116 C70.8718377,2.00177997 66.0391133,3.08556699e-16 61,0 Z M69.6200233,15.7018385 L60.1387878,25.5239662 C59.5224483,26.1586779 58.5270369,26.1586779 57.9106974,25.5239662 L52.3799767,19.7943917 C51.8430594,19.1448867 51.8791584,18.1766968 52.4628376,17.5720318 C53.0465167,16.9673668 53.9811041,16.9299699 54.608067,17.4861917 L59.0247426,22.0534811 L67.391933,13.3936385 C68.0188959,12.8374167 68.9534833,12.8748136 69.5371624,13.4794786 C70.1208416,14.0841436 70.1569406,15.0523335 69.6200233,15.7018385 L69.6200233,15.7018385 Z" id="Shape"></path>
                    </g>
                </g>
            </g>
        </g>
    </g>
</svg>