<?xml version="1.0" encoding="UTF-8"?>
<svg width="45px" height="36px" viewBox="0 0 45 36" version="1.1" xmlns="http://www.w3.org/2000/svg" xmlns:xlink="http://www.w3.org/1999/xlink">
    <!-- Generator: Sketch 53.1 (72631) - https://sketchapp.com -->
    <title>thunder-move</title>
    <desc>Created with Sketch.</desc>
    <g id="Homepage" stroke="none" stroke-width="1" fill="none" fill-rule="evenodd">
        <g id="Metomic-/-Homepage" transform="translate(-706.000000, -1860.000000)">
            <g id="Group-3" transform="translate(150.000000, 1616.000000)">
                <g id="Group-9-Copy" transform="translate(394.000000, 237.000000)">
                    <g id="thunder-move" transform="translate(160.000000, 0.000000)">
                        <rect id="Rectangle-10" x="0" y="0" width="50" height="50"></rect>
                        <path d="M34.1125785,41.5394654 L46.2971873,23.2625523 C46.7758629,22.5445387 46.5818412,21.5744304 45.8638277,21.0957548 C45.6071598,20.9246427 45.3055852,20.8333333 44.9971088,20.8333333 L35.4166667,20.8333333 L35.4166667,9.3272536 C35.4166667,8.46430869 34.7171117,7.7647536 33.8541667,7.7647536 C33.3317398,7.7647536 32.8438783,8.02584913 32.5540881,8.46053454 L20.3694794,26.7374477 C19.8908036,27.4554612 20.0848253,28.4255696 20.8028389,28.9042452 C21.0595069,29.0753573 21.3610815,29.1666667 21.6695579,29.1666667 L31.25,29.1666667 L31.25,40.6727465 C31.25,41.5356912 31.949555,42.2352465 32.8125,42.2352465 C33.3349269,42.2352465 33.8227883,41.9741508 34.1125785,41.5394654 Z" id="Path-3" fill="#FF3464" fill-rule="nonzero"></path>
                        <path d="M9.375,10.4166667 L19.7916667,10.4166667 C21.5175565,10.4166667 22.9166667,11.8157768 22.9166667,13.5416667 C22.9166667,15.2675565 21.5175565,16.6666667 19.7916667,16.6666667 L9.375,16.6666667 C7.64911017,16.6666667 6.25,15.2675565 6.25,13.5416667 C6.25,11.8157768 7.64911017,10.4166667 9.375,10.4166667 Z M9.375,35.4166667 L19.7916667,35.4166667 C21.5175565,35.4166667 22.9166667,36.8157769 22.9166667,38.5416667 C22.9166667,40.2675565 21.5175565,41.6666667 19.7916667,41.6666667 L9.375,41.6666667 C7.64911017,41.6666667 6.25,40.2675565 6.25,38.5416667 C6.25,36.8157769 7.64911017,35.4166667 9.375,35.4166667 Z M5.20833333,22.9166667 L13.5416667,22.9166667 C15.2675565,22.9166667 16.6666667,24.3157769 16.6666667,26.0416667 C16.6666667,27.7675565 15.2675565,29.1666667 13.5416667,29.1666667 L5.20833333,29.1666667 C3.4824435,29.1666667 2.08333333,27.7675565 2.08333333,26.0416667 C2.08333333,24.3157769 3.4824435,22.9166667 5.20833333,22.9166667 Z" id="Combined-Shape" fill="#FF3464" fill-rule="nonzero" opacity="0.3"></path>
                    </g>
                </g>
            </g>
        </g>
    </g>
</svg>