<?xml version="1.0" encoding="UTF-8"?>
<svg width="94px" height="53px" viewBox="0 0 94 53" version="1.1" xmlns="http://www.w3.org/2000/svg" xmlns:xlink="http://www.w3.org/1999/xlink">
    <!-- Generator: Sketch 53.2 (72643) - https://sketchapp.com -->
    <title>ef</title>
    <desc>Created with Sketch.</desc>
    <g id="Scratchpad" stroke="none" stroke-width="1" fill="none" fill-rule="evenodd">
        <g id="ef" fill="#F8795D" fill-rule="nonzero">
            <path d="M35.36,31.76 C31.2402751,37.5437323 23.6649961,39.7043785 17.1140451,36.9641719 C10.563094,34.2239652 6.78231771,27.3131783 8.00759844,20.3187248 C9.23287916,13.3242714 15.1376762,8.11019268 22.23,7.76 L22.99,7.76 C30.078215,7.77012588 36.2184738,12.6781841 37.79,19.59 L14.57,19.59 L14.57,26.35 L44.68,26.35 C44.9031977,24.8778779 44.9802394,23.3872885 44.91,21.9 C44.341562,9.88991824 34.2364385,0.560784506 22.2192696,0.951729779 C10.2021007,1.34267505 0.724697283,11.308872 0.938064492,23.330505 C1.1514317,35.352138 10.9765268,44.9757426 23,44.94 L24.07,44.94 C32.3987507,44.5088105 39.7676105,39.4052071 43.1,31.76 L35.36,31.76 Z" id="Path"></path>
            <rect id="Rectangle" x="50.78" y="19.59" width="43.2" height="6.76"></rect>
            <rect id="Rectangle" x="87.21" y="31.77" width="6.76" height="20.77"></rect>
            <rect id="Rectangle" x="72.33" y="31.76" width="6.76" height="20.77"></rect>
        </g>
    </g>
</svg>