<?xml version="1.0" encoding="UTF-8"?>
<svg width="600px" height="600px" viewBox="0 0 600 600" version="1.1" xmlns="http://www.w3.org/2000/svg" xmlns:xlink="http://www.w3.org/1999/xlink">
    <!-- Generator: Sketch 53.1 (72631) - https://sketchapp.com -->
    <title>Artboard Copy</title>
    <desc>Created with Sketch.</desc>
    <g id="Artboard-Copy" stroke="none" stroke-width="1" fill="none" fill-rule="evenodd">
        <g id="Group-2-Copy-3" transform="translate(0.000000, 130.000000)">
            <g id="Group" transform="translate(0.772332, 1.130757)">
                <rect id="Rectangle" stroke="#FF3464" stroke-width="64.2360041" opacity="0.4" x="32.1180021" y="32.1180021" width="533.670259" height="274.99097" rx="137.495485"></rect>
                <path d="M299.517547,339.014516 C315.515519,337.170553 327.938549,323.54954 327.938549,307.020205 C327.938549,290.527524 315.570557,276.930282 299.623926,275.038335 L299.624366,274.773849 L429.251572,274.773849 C487.194873,274.773849 534.167199,227.691951 534.167199,169.613487 C534.167199,111.535023 487.194873,64.453125 429.251572,64.453125 L300.081257,64.453125 L300.081257,64.1310472 C298.682829,64.317368 297.255986,64.4135382 295.806733,64.4135382 C278.060821,64.4135382 263.674917,49.9940765 263.674917,32.2067691 C263.674917,14.4194617 278.060821,3.55271368e-14 295.806733,3.55271368e-14 C297.255986,3.55271368e-14 298.682829,0.0961702001 300.081257,0.282491065 L300.081257,-8.55493454e-12 L429.251572,2.82288387e-11 C522.708509,2.82115771e-11 598.470326,75.9385447 598.470326,169.613487 C598.470326,263.288429 522.708509,339.226974 429.251572,339.226974 L299.517194,339.226974 L299.517547,339.014516 C298.300015,339.154851 297.061777,339.226974 295.806733,339.226974 C278.060821,339.226974 263.674917,324.807512 263.674917,307.020205 C263.674917,289.232897 278.060821,274.813435 295.806733,274.813435 C297.098347,274.813435 298.372162,274.889822 299.623926,275.038335 L299.624366,274.773849 L429.251572,274.773849 C487.194873,274.773849 534.167199,227.691951 534.167199,169.613487 C534.167199,111.535023 487.194873,64.453125 429.251572,64.453125 L300.081257,64.453125 L300.081257,64.1310472 L300.081257,0.282491065 L300.081257,-8.55493454e-12 L429.251572,2.82288387e-11 C522.708509,2.82115771e-11 598.470326,75.9385447 598.470326,169.613487 C598.470326,263.288429 522.708509,339.226974 429.251572,339.226974 L299.517194,339.226974 L299.517547,339.014516 Z" id="Combined-Shape" fill="#FF3464" fill-rule="nonzero"></path>
            </g>
        </g>
    </g>
</svg>