<?xml version="1.0" encoding="UTF-8"?>
<svg width="24px" height="22px" viewBox="0 0 24 22" version="1.1" xmlns="http://www.w3.org/2000/svg" xmlns:xlink="http://www.w3.org/1999/xlink">
    <!-- Generator: Sketch 53.1 (72631) - https://sketchapp.com -->
    <title>urgent-mail</title>
    <desc>Created with Sketch.</desc>
    <g id="Features" stroke="none" stroke-width="1" fill="none" fill-rule="evenodd">
        <g id="Metomic-/-Features" transform="translate(-863.000000, -2094.000000)">
            <g id="Group-23" transform="translate(810.000000, 1642.000000)">
                <g id="urgent-mail" transform="translate(50.000000, 450.000000)">
                    <rect id="bound" x="0" y="0" width="30" height="30"></rect>
                    <path d="M15.8796296,17.5 L19.5833334,12.5 L16.8055555,12.5 L16.8055555,7.5 L11.25,15 L14.0277777,15 L14.0277777,17.5 L7.5,17.5 C6.80964406,17.5 6.25,16.9403559 6.25,16.25 L6.25,3.75 C6.25,3.05964406 6.80964406,2.5 7.5,2.5 L22.5,2.5 C23.1903559,2.5 23.75,3.05964406 23.75,3.75 L23.75,16.25 C23.75,16.9403559 23.1903559,17.5 22.5,17.5 L15.8796296,17.5 Z" id="Combined-Shape" fill="#FF3464" opacity="0.3"></path>
                    <path d="M12.2553619,13.6427614 L11.25,15 L14.0277777,15 L14.0277777,20 L19.5833334,12.5 L19.3269231,12.5 L25.2590684,8.21567283 C25.538897,8.01357438 25.9295761,8.07658714 26.1316745,8.35641574 C26.2085974,8.46292439 26.25,8.59096535 26.25,8.72234734 L26.25,21.25 C26.25,22.6307119 25.1307119,23.75 23.75,23.75 L6.25,23.75 C4.86928812,23.75 3.75,22.6307119 3.75,21.25 L3.75,8.72234734 C3.75,8.37716936 4.02982204,8.09734734 4.375,8.09734734 C4.50638199,8.09734734 4.63442295,8.13874991 4.7409316,8.21567283 L12.2553619,13.6427614 Z" id="Combined-Shape" fill="#FF3464"></path>
                </g>
            </g>
        </g>
    </g>
</svg>