<?xml version="1.0" encoding="UTF-8"?>
<svg width="48px" height="46px" viewBox="0 0 48 46" version="1.1" xmlns="http://www.w3.org/2000/svg" xmlns:xlink="http://www.w3.org/1999/xlink">
    <!-- Generator: Sketch 53.1 (72631) - https://sketchapp.com -->
    <title>mail-attachment</title>
    <desc>Created with Sketch.</desc>
    <g id="Auxillary" stroke="none" stroke-width="1" fill="none" fill-rule="evenodd">
        <g id="Metomic-/-Contact" transform="translate(-1070.000000, -628.000000)">
            <g id="Group-2-Copy-2" transform="translate(916.000000, 568.000000)">
                <g id="mail-attachment" transform="translate(146.000000, 55.000000)">
                    <rect id="bound" x="0" y="0" width="64" height="64"></rect>
                    <path d="M39.6190664,34.6666667 C39.8664325,33.9262125 40,33.1368157 40,32.3174603 L40,18.3492063 C40,14.1062569 36.4182779,10.6666667 32,10.6666667 L31.2727272,10.6666667 C27.2561109,10.6666667 24,13.7935668 24,17.6507937 L26.9090909,17.6507937 C26.9090909,15.3364575 28.8627573,13.4603175 31.2727272,13.4603175 L32,13.4603175 C34.8116315,13.4603175 37.0909091,15.6491476 37.0909091,18.3492063 L37.0909091,32.3174603 C37.0909091,33.1689011 36.8642571,33.9695051 36.4657325,34.6666667 L27.5342675,34.6666667 C27.1357429,33.9695051 26.9090909,33.1689011 26.9090909,32.3174603 L26.9090909,25.3333333 C26.9090909,24.1761653 27.8859243,23.2380952 29.0909091,23.2380952 C30.2958939,23.2380952 31.2727272,24.1761653 31.2727272,25.3333333 L31.2727272,30.2222221 L34.1818181,30.2222221 L34.1818181,25.3333333 C34.1818181,22.6332746 31.9025405,20.4444445 29.0909091,20.4444445 C26.2792776,20.4444445 24,22.6332746 24,25.3333333 L24,32.3174603 C24,33.1368157 24.1335675,33.9262125 24.3809335,34.6666667 L16,34.6666667 C14.5272407,34.6666667 13.3333333,33.4727592 13.3333333,32 L13.3333333,8 C13.3333333,6.52724067 14.5272407,5.33333333 16,5.33333333 L48,5.33333333 C49.4727592,5.33333333 50.6666667,6.52724067 50.6666667,8 L50.6666667,32 C50.6666667,33.4727592 49.4727592,34.6666667 48,34.6666667 L39.6190664,34.6666667 Z" id="Combined-Shape" fill="#FF3464" opacity="0.3"></path>
                    <path d="M24,27.5555555 L24,32.3174603 C24,36.5604099 27.5817221,40 32,40 C36.4182779,40 40,36.5604099 40,32.3174603 L40,27.5555555 L53.8860125,17.5267687 C54.4829803,17.0956253 55.3164291,17.2300526 55.7475723,17.8270202 C55.9116744,18.0542387 56,18.3273927 56,18.6076743 L56,45.3333333 C56,48.278852 53.6121853,50.6666667 50.6666667,50.6666667 L13.3333333,50.6666667 C10.3878147,50.6666667 8,48.278852 8,45.3333333 L8,18.6076743 C8,17.8712946 8.59695368,17.274341 9.33333333,17.274341 C9.61361491,17.274341 9.88676896,17.3626665 10.1139874,17.5267687 L24,27.5555555 Z M26.9090909,29.6565656 L32,33.3333333 L37.0909091,29.6565656 L37.0909091,32.3174603 C37.0909091,35.0175192 34.8116315,37.2063493 32,37.2063493 C29.1883685,37.2063493 26.9090909,35.0175192 26.9090909,32.3174603 L26.9090909,29.6565656 Z" id="Combined-Shape" fill="#FF3464" fill-rule="nonzero"></path>
                </g>
            </g>
        </g>
    </g>
</svg>