<?xml version="1.0" encoding="UTF-8"?>
<svg width="20px" height="26px" viewBox="0 0 20 26" version="1.1" xmlns="http://www.w3.org/2000/svg" xmlns:xlink="http://www.w3.org/1999/xlink">
    <!-- Generator: Sketch 53.1 (72631) - https://sketchapp.com -->
    <title>shield-user</title>
    <desc>Created with Sketch.</desc>
    <g id="Features" stroke="none" stroke-width="1" fill="none" fill-rule="evenodd">
        <g id="Metomic-/-Features" transform="translate(-865.000000, -1925.000000)">
            <g id="Group-23" transform="translate(810.000000, 1642.000000)">
                <g id="shield-user" transform="translate(50.000000, 280.000000)">
                    <rect id="bound" x="0" y="0" width="30" height="30"></rect>
                    <path d="M5,5 L14.5392786,3.21138525 C14.8437731,3.15429254 15.1562269,3.15429254 15.4607214,3.21138525 L25,5 L25,16.6037618 C25,20.2717326 23.110433,23.6809794 20,25.625 L15.6624986,28.3359384 C15.2571609,28.5892745 14.7428391,28.5892745 14.3375014,28.3359384 L10,25.625 C6.88956698,23.6809794 5,20.2717326 5,16.6037618 L5,5 Z" id="Path-50" fill="#FF3464" opacity="0.3"></path>
                    <path d="M15,13.75 C13.6192881,13.75 12.5,12.6307119 12.5,11.25 C12.5,9.86928813 13.6192881,8.75 15,8.75 C16.3807119,8.75 17.5,9.86928813 17.5,11.25 C17.5,12.6307119 16.3807119,13.75 15,13.75 Z" id="Mask" fill="#FF3464" opacity="0.3"></path>
                    <path d="M8.75045256,20.6243794 C9.01962398,16.8957155 11.7096614,15 14.9884315,15 C18.3133448,15 21.0450581,16.7915569 21.2485516,20.625 C21.2566583,20.7777141 21.2485516,21.25 20.726875,21.25 C18.1535583,21.25 14.32967,21.25 9.25520988,21.25 C9.08105011,21.25 8.73579045,20.8274844 8.75045256,20.6243794 Z" id="Mask-Copy" fill="#FF3464" opacity="0.3"></path>
                </g>
            </g>
        </g>
    </g>
</svg>