<?xml version="1.0" encoding="UTF-8"?>
<svg width="48px" height="57px" viewBox="0 0 48 57" version="1.1" xmlns="http://www.w3.org/2000/svg" xmlns:xlink="http://www.w3.org/1999/xlink">
    <!-- Generator: Sketch 53.1 (72631) - https://sketchapp.com -->
    <title>building</title>
    <desc>Created with Sketch.</desc>
    <g id="Auxillary" stroke="none" stroke-width="1" fill="none" fill-rule="evenodd">
        <g id="Metomic-/-Contact" transform="translate(-322.000000, -628.000000)">
            <g id="Group-2" transform="translate(168.000000, 568.000000)">
                <g id="building" transform="translate(146.000000, 55.000000)">
                    <rect id="bound" x="0" y="0" width="64" height="64"></rect>
                    <path d="M36,56 L36,48 C36,46.5272408 34.8060925,45.3333333 33.3333333,45.3333333 L30.6666667,45.3333333 C29.1939075,45.3333333 28,46.5272408 28,48 L28,56 L13.3333333,56 L13.3333333,10.6666667 C13.3333333,7.721148 15.721148,5.33333333 18.6666667,5.33333333 L45.3333333,5.33333333 C48.278852,5.33333333 50.6666667,7.721148 50.6666667,10.6666667 L50.6666667,56 L36,56 Z M24,10.6666667 C22.5272407,10.6666667 21.3333333,11.860574 21.3333333,13.3333333 L21.3333333,16 C21.3333333,17.4727593 22.5272407,18.6666667 24,18.6666667 L26.6666667,18.6666667 C28.1394259,18.6666667 29.3333333,17.4727593 29.3333333,16 L29.3333333,13.3333333 C29.3333333,11.860574 28.1394259,10.6666667 26.6666667,10.6666667 L24,10.6666667 Z M37.3333333,10.6666667 C35.8605741,10.6666667 34.6666667,11.860574 34.6666667,13.3333333 L34.6666667,16 C34.6666667,17.4727593 35.8605741,18.6666667 37.3333333,18.6666667 L40,18.6666667 C41.4727592,18.6666667 42.6666667,17.4727593 42.6666667,16 L42.6666667,13.3333333 C42.6666667,11.860574 41.4727592,10.6666667 40,10.6666667 L37.3333333,10.6666667 Z M24,21.3333333 C22.5272407,21.3333333 21.3333333,22.5272407 21.3333333,24 L21.3333333,26.6666667 C21.3333333,28.1394259 22.5272407,29.3333333 24,29.3333333 L26.6666667,29.3333333 C28.1394259,29.3333333 29.3333333,28.1394259 29.3333333,26.6666667 L29.3333333,24 C29.3333333,22.5272407 28.1394259,21.3333333 26.6666667,21.3333333 L24,21.3333333 Z M24,32 C22.5272407,32 21.3333333,33.1939075 21.3333333,34.6666667 L21.3333333,37.3333333 C21.3333333,38.8060925 22.5272407,40 24,40 L26.6666667,40 C28.1394259,40 29.3333333,38.8060925 29.3333333,37.3333333 L29.3333333,34.6666667 C29.3333333,33.1939075 28.1394259,32 26.6666667,32 L24,32 Z M37.3333333,32 C35.8605741,32 34.6666667,33.1939075 34.6666667,34.6666667 L34.6666667,37.3333333 C34.6666667,38.8060925 35.8605741,40 37.3333333,40 L40,40 C41.4727592,40 42.6666667,38.8060925 42.6666667,37.3333333 L42.6666667,34.6666667 C42.6666667,33.1939075 41.4727592,32 40,32 L37.3333333,32 Z" id="Combined-Shape" fill="#FF3464" fill-rule="nonzero"></path>
                    <rect id="Rectangle-Copy-2" fill="#FFFFFF" x="34.6666667" y="21.3333333" width="8" height="8" rx="2.66666667"></rect>
                    <path d="M10.6666667,56 L53.3333333,56 C54.8060925,56 56,57.1939075 56,58.6666667 L56,59.7333333 C56,60.6169888 55.2836555,61.3333333 54.4,61.3333333 L9.6,61.3333333 C8.7163444,61.3333333 8,60.6169888 8,59.7333333 L8,58.6666667 C8,57.1939075 9.19390733,56 10.6666667,56 Z" id="Rectangle-2" fill="#FF3464" opacity="0.3"></path>
                </g>
            </g>
        </g>
    </g>
</svg>