<?xml version="1.0" encoding="UTF-8"?>
<svg width="50px" height="50px" viewBox="0 0 50 50" version="1.1" xmlns="http://www.w3.org/2000/svg" xmlns:xlink="http://www.w3.org/1999/xlink">
    <!-- Generator: Sketch 53.2 (72643) - https://sketchapp.com -->
    <title>Group 4</title>
    <desc>Created with Sketch.</desc>
    <g id="Homepage" stroke="none" stroke-width="1" fill="none" fill-rule="evenodd">
        <g id="Metomic-/-Homepage" transform="translate(-302.000000, -1853.000000)" fill="#FF3464">
            <g id="Group-3" transform="translate(150.000000, 1616.000000)">
                <g id="Group-9" transform="translate(0.000000, 237.000000)">
                    <g id="Group-4" transform="translate(152.000000, 0.000000)">
                        <path d="M33.1399784,22.2784193 L24.1465457,31.4633005 C23.8874961,31.7279841 23.375802,31.9444444 23.0092896,31.9444444 L22.2324966,31.9444444 C21.8659842,31.9444444 21.3542901,31.7272589 21.0955964,31.4633005 L16.8604205,27.1279293 C16.6017267,26.8632457 16.6020826,26.430325 16.861488,26.1663666 L18.52823,24.468041 C18.7876355,24.2033575 19.2117935,24.2033575 19.4715548,24.4673159 L22.1773419,27.2185743 C22.4371031,27.4828953 22.8612612,27.4825327 23.1203108,27.2178491 L30.5363166,19.6435491 C30.7953662,19.3792282 31.2198801,19.3777778 31.4799972,19.641011 L33.1378433,21.3186695 C33.3976046,21.5822654 33.3986721,22.0133732 33.1399784,22.2784193 L33.1399784,22.2784193 Z" id="Shape-path"></path>
                        <polygon id="Shape" fill-rule="nonzero" points="25.0000701 2.7533531e-14 25.8099837 2.62135836 28.4313725 2.62135836 26.3107645 4.24138673 27.1206781 6.8627451 25.0000701 5.24168458 22.8798827 6.8627451 23.6899364 4.24138673 21.5686275 2.62135836 24.1900163 2.62135836"></polygon>
                        <polygon id="Shape" fill-rule="nonzero" points="25.0000701 43.1372549 25.8099837 45.7593985 28.4313725 45.7593985 26.3107645 47.3791833 27.1206781 50 25.0000701 48.3803627 22.8798827 50 23.6899364 47.3791833 21.5686275 45.7593985 24.1900163 45.7593985"></polygon>
                        <polygon id="Shape" fill-rule="nonzero" points="35.7843137 3.92156863 36.5939225 6.54289726 39.2156863 6.54289726 37.0946348 8.16357475 37.9048044 10.7843137 35.7843137 9.16363624 33.6634024 10.7843137 34.4734318 8.16357475 32.3529412 6.54289726 34.974705 6.54289726"></polygon>
                        <polygon id="Shape" fill-rule="nonzero" points="44.5031516 32.1428571 45.3127108 34.7650786 47.9341737 34.7650786 45.8133924 36.3850026 46.6239329 39.0056022 44.5031516 37.386268 42.3822301 39.0056022 43.1923501 36.3850026 41.0714286 34.7650786 43.6930317 34.7650786"></polygon>
                        <polygon id="Shape" fill-rule="nonzero" points="46.5688378 21.5686275 47.3783969 24.1897605 50 24.1897605 47.8792187 25.8096497 48.6891984 28.4313725 46.5688378 26.8120731 44.4480565 28.4313725 45.258597 25.8096497 43.1372549 24.1897605 45.7582972 24.1897605"></polygon>
                        <polygon id="Shape" fill-rule="nonzero" points="3.43186332 21.5686275 4.2414886 24.1897605 6.8627451 24.1897605 4.74179047 25.8096497 5.55239729 28.4313725 3.43186332 26.8120731 1.31076847 28.4313725 2.12095463 25.8096497 2.7533531e-14 24.1897605 2.62167716 24.1897605"></polygon>
                        <polygon id="Shape" fill-rule="nonzero" points="5.2175776 32.1428571 6.02720288 34.7650786 8.64845938 34.7650786 6.52806563 36.3850026 7.3375507 39.0056022 5.2175776 37.386268 3.09662297 39.0056022 3.90666891 36.3850026 1.78571429 34.7650786 4.40753166 34.7650786"></polygon>
                        <polygon id="Shape" fill-rule="nonzero" points="44.5031516 10.7142857 45.3127108 13.3365072 47.9341737 13.3365072 45.8133924 14.9564312 46.6239329 17.5770308 44.5031516 15.9576966 42.3822301 17.5770308 43.1923501 14.9564312 41.0714286 13.3365072 43.6930317 13.3365072"></polygon>
                        <polygon id="Shape" fill-rule="nonzero" points="6.11043474 10.7142857 6.92006003 13.3365072 9.54131653 13.3365072 7.42092278 14.9564312 8.23040784 17.5770308 6.11043474 15.9576966 3.98948012 17.5770308 4.79952606 14.9564312 2.67857143 13.3365072 5.3003888 13.3365072"></polygon>
                        <polygon id="Shape" fill-rule="nonzero" points="37.7453084 41.1764706 38.5548675 43.7974348 41.1764706 43.7974348 39.0551285 45.4182515 39.865669 48.0392157 37.7453084 46.4194309 35.6239662 48.0392157 36.434647 45.4182515 34.3137255 43.7974348 36.9353286 43.7974348"></polygon>
                        <polygon id="Shape" fill-rule="nonzero" points="14.2157564 3.92156863 15.0252414 6.54289726 17.6470588 6.54289726 15.5261042 8.16357475 16.336711 10.7843137 14.2157564 9.16363624 12.0952224 10.7843137 12.9052684 8.16357475 10.7843137 6.54289726 13.4055702 6.54289726"></polygon>
                        <polygon id="Shape" fill-rule="nonzero" points="12.2546916 41.1764706 13.0646714 43.7987832 15.6862745 43.7987832 13.5654932 45.4180826 14.375473 48.0392157 12.2546916 46.4203586 10.134331 48.0392157 10.9443107 45.4180826 8.82352941 43.7987832 11.4445717 43.7987832"></polygon>
                    </g>
                </g>
            </g>
        </g>
    </g>
</svg>