<?xml version="1.0" encoding="UTF-8"?>
<svg width="694px" height="494px" viewBox="0 0 694 494" version="1.1" xmlns="http://www.w3.org/2000/svg" xmlns:xlink="http://www.w3.org/1999/xlink">
    <!-- Generator: Sketch 53.2 (72643) - https://sketchapp.com -->
    <title>iPad Copy 2</title>
    <desc>Created with Sketch.</desc>
    <g id="iPad-Copy-2" stroke="none" stroke-width="1" fill="none" fill-rule="evenodd">
        <rect fill="#FFFFFF" x="0" y="0" width="694" height="494"></rect>
        <g id="Group-2" transform="translate(144.400000, 92.500000)" fill-rule="nonzero">
            <path d="M6.442,301.872 C7.53213878,301.872 8.37586368,301.681602 8.9732,301.3008 C9.57053632,300.919998 9.8692,300.371204 9.8692,299.6544 C9.8692,299.131731 9.70493498,298.706135 9.3764,298.3776 C9.04786502,298.049065 8.62226928,297.802667 8.0996,297.6384 C7.57693072,297.474133 7.00200314,297.328534 6.3748,297.2016 C5.74759686,297.074666 5.11666984,296.917868 4.482,296.7312 C3.84733016,296.544532 3.26866928,296.301868 2.746,296.0032 C2.22333072,295.704532 1.79773498,295.256536 1.4692,294.6592 C1.14066502,294.061864 0.9764,293.330138 0.9764,292.464 C0.9764,291.14986 1.49532814,290.037338 2.5332,289.1264 C3.57107186,288.215462 4.94865808,287.76 6.666,287.76 C8.47294237,287.76 9.88039496,288.249062 10.8884,289.2272 C11.896405,290.205338 12.4153332,291.470926 12.4452,293.024 L9.7796,293.024 C9.76466659,292.202663 9.48840269,291.526936 8.9508,290.9968 C8.41319731,290.466664 7.65160493,290.2016 6.666,290.2016 C5.7251953,290.2016 4.98973598,290.391998 4.4596,290.7728 C3.92946402,291.153602 3.6644,291.69493 3.6644,292.3968 C3.6644,292.859736 3.82866502,293.244265 4.1572,293.5504 C4.48573498,293.856535 4.91506402,294.087999 5.4452,294.2448 C5.97533598,294.401601 6.55773016,294.543466 7.1924,294.6704 C7.82706984,294.797334 8.46173016,294.961599 9.0964,295.1632 C9.73106984,295.364801 10.313464,295.626132 10.8436,295.9472 C11.373736,296.268268 11.803065,296.731197 12.1316,297.336 C12.460135,297.940803 12.6244,298.676262 12.6244,299.5424 C12.6244,300.990941 12.0494724,302.148262 10.8996,303.0144 C9.74972758,303.880538 8.21907622,304.3136 6.3076,304.3136 C4.35132355,304.3136 2.88040493,303.798405 1.8948,302.768 C0.909195072,301.737595 0.394000224,300.490674 0.3492,299.0272 L3.0372,299.0272 C3.09693363,299.908271 3.41799709,300.602664 4.0004,301.1104 C4.58280291,301.618136 5.39666144,301.872 6.442,301.872 Z M13.8508,298.1984 C13.8508,296.481058 14.3958612,295.036273 15.486,293.864 C16.5761388,292.691727 17.9649249,292.1056 19.6524,292.1056 C21.2502747,292.1056 22.5233286,292.557329 23.4716,293.4608 C24.4198714,294.364271 24.9835991,295.405861 25.1628,296.5856 L22.43,296.5856 C22.2657325,295.943463 21.9334692,295.428269 21.4332,295.04 C20.9329308,294.651731 20.3318702,294.4576 19.63,294.4576 C18.6891953,294.4576 17.9350695,294.804797 17.3676,295.4992 C16.8001305,296.193603 16.5164,297.093328 16.5164,298.1984 C16.5164,299.303472 16.8001305,300.199463 17.3676,300.8864 C17.9350695,301.573337 18.6891953,301.9168 19.63,301.9168 C20.3318702,301.9168 20.9329308,301.722669 21.4332,301.3344 C21.9334692,300.946131 22.2657325,300.430937 22.43,299.7888 L25.1628,299.7888 C24.9835991,300.968539 24.4198714,302.010129 23.4716,302.9136 C22.5233286,303.817071 21.2502747,304.2688 19.6524,304.2688 C17.9649249,304.2688 16.5761388,303.682673 15.486,302.5104 C14.3958612,301.338127 13.8508,299.900809 13.8508,298.1984 Z M33.7588,298.5344 L30.6676,299.0048 C29.2190594,299.228801 28.4948,299.781329 28.4948,300.6624 C28.4948,301.677872 29.1817265,302.1856 30.5556,302.1856 C31.5860052,302.1856 32.3774639,301.909336 32.93,301.3568 C33.4825361,300.804264 33.7588,300.109871 33.7588,299.2736 L33.7588,298.5344 Z M30.018,304.2688 C28.6441265,304.2688 27.6212034,303.947737 26.9492,303.3056 C26.2771966,302.663463 25.9412,301.812272 25.9412,300.752 C25.9412,298.721057 27.4270518,297.496535 30.3988,297.0784 L33.7588,296.608 L33.7588,296.4288 C33.7588,295.010126 32.9300083,294.3008 31.2724,294.3008 C29.8238594,294.3008 29.0025343,294.875728 28.8084,296.0256 L26.21,296.0256 C26.3294673,294.890661 26.8035959,293.953604 27.6324,293.2144 C28.4612041,292.475196 29.6969251,292.1056 31.3396,292.1056 C32.9972083,292.1056 34.2478624,292.486396 35.0916,293.248 C35.9353376,294.009604 36.3572,295.077326 36.3572,296.4512 L36.3572,301.8048 C36.3572,302.745605 36.4691989,303.477331 36.6932,304 L34.162,304 C34.1470666,304 34.1284001,303.944001 34.106,303.832 C34.0835999,303.719999 34.0612001,303.537068 34.0388,303.2832 C34.0163999,303.029332 34.0052,302.760535 34.0052,302.4768 C33.2137294,303.671473 31.884676,304.2688 30.018,304.2688 Z M41.2796,292.3744 L41.2796,293.92 C41.5484013,293.412264 41.9926636,292.982935 42.6124,292.632 C43.2321364,292.281065 43.9825289,292.1056 44.8636,292.1056 C46.2374735,292.1056 47.3014629,292.523729 48.0556,293.36 C48.8097371,294.196271 49.1868,295.308793 49.1868,296.6976 L49.1868,304 L46.5212,304 L46.5212,297.0336 C46.5212,296.212263 46.3308019,295.566402 45.95,295.096 C45.5691981,294.625598 44.9905372,294.3904 44.214,294.3904 C43.3627957,294.3904 42.6945358,294.644264 42.2092,295.152 C41.7238642,295.659736 41.4812,296.361596 41.4812,297.2576 L41.4812,304 L38.8156,304 L38.8156,292.3744 L41.2796,292.3744 Z M54.0868,292.3744 L54.0868,293.92 C54.3556013,293.412264 54.7998636,292.982935 55.4196,292.632 C56.0393364,292.281065 56.7897289,292.1056 57.6708,292.1056 C59.0446735,292.1056 60.1086629,292.523729 60.8628,293.36 C61.6169371,294.196271 61.994,295.308793 61.994,296.6976 L61.994,304 L59.3284,304 L59.3284,297.0336 C59.3284,296.212263 59.1380019,295.566402 58.7572,295.096 C58.3763981,294.625598 57.7977372,294.3904 57.0212,294.3904 C56.1699957,294.3904 55.5017358,294.644264 55.0164,295.152 C54.5310642,295.659736 54.2884,296.361596 54.2884,297.2576 L54.2884,304 L51.6228,304 L51.6228,292.3744 L54.0868,292.3744 Z M65.774,290.4256 C65.2811975,290.4256 64.8780016,290.272535 64.5644,289.9664 C64.2507984,289.660265 64.094,289.268269 64.094,288.7904 C64.094,288.297598 64.2507984,287.894402 64.5644,287.5808 C64.8780016,287.267198 65.2811975,287.1104 65.774,287.1104 C66.2518691,287.1104 66.6475984,287.267198 66.9612,287.5808 C67.2748016,287.894402 67.4316,288.297598 67.4316,288.7904 C67.4316,289.268269 67.2748016,289.660265 66.9612,289.9664 C66.6475984,290.272535 66.2518691,290.4256 65.774,290.4256 Z M64.43,304 L64.43,292.3744 L67.0956,292.3744 L67.0956,304 L64.43,304 Z M72.0852,292.3744 L72.0852,293.92 C72.3540013,293.412264 72.7982636,292.982935 73.418,292.632 C74.0377364,292.281065 74.7881289,292.1056 75.6692,292.1056 C77.0430735,292.1056 78.1070629,292.523729 78.8612,293.36 C79.6153371,294.196271 79.9924,295.308793 79.9924,296.6976 L79.9924,304 L77.3268,304 L77.3268,297.0336 C77.3268,296.212263 77.1364019,295.566402 76.7556,295.096 C76.3747981,294.625598 75.7961372,294.3904 75.0196,294.3904 C74.1683957,294.3904 73.5001358,294.644264 73.0148,295.152 C72.5294642,295.659736 72.2868,296.361596 72.2868,297.2576 L72.2868,304 L69.6212,304 L69.6212,292.3744 L72.0852,292.3744 Z M90.8956,294.032 L90.8956,292.3744 L93.3596,292.3744 L93.3596,303.5072 C93.3596,305.090141 92.8705382,306.385595 91.8924,307.3936 C90.9142618,308.401605 89.5516087,308.9056 87.8044,308.9056 C86.2065253,308.9056 84.9558712,308.494937 84.0524,307.6736 C83.1489288,306.852263 82.6225341,305.911472 82.4732,304.8512 L85.1388,304.8512 C85.467335,306.030939 86.3707926,306.6208 87.8492,306.6208 C88.7452045,306.6208 89.4433308,306.370669 89.9436,305.8704 C90.4438692,305.370131 90.694,304.701871 90.694,303.8656 L90.694,302.0512 C89.9174628,303.245873 88.6929417,303.8432 87.0204,303.8432 C85.4075919,303.8432 84.1121382,303.279472 83.134,302.152 C82.1558618,301.024528 81.6668,299.632008 81.6668,297.9744 C81.6668,296.316792 82.1558618,294.924272 83.134,293.7968 C84.1121382,292.669328 85.4075919,292.1056 87.0204,292.1056 C88.7974756,292.1056 90.089196,292.747727 90.8956,294.032 Z M90.806,297.9744 C90.806,296.943995 90.5073363,296.10027 89.91,295.4432 C89.3126637,294.78613 88.5286715,294.4576 87.558,294.4576 C86.6022619,294.4576 85.8257363,294.78613 85.2284,295.4432 C84.6310637,296.10027 84.3324,296.943995 84.3324,297.9744 C84.3324,298.989872 84.6310637,299.829863 85.2284,300.4944 C85.8257363,301.158937 86.6022619,301.4912 87.558,301.4912 C88.5286715,301.4912 89.3126637,301.158937 89.91,300.4944 C90.5073363,299.829863 90.806,298.989872 90.806,297.9744 Z M98.2596,303.6864 C97.9161316,304.014935 97.4756027,304.1792 96.938,304.1792 C96.4003973,304.1792 95.9561351,304.011202 95.6052,303.6752 C95.2542649,303.339198 95.0788,302.902403 95.0788,302.3648 C95.0788,301.842131 95.2542649,301.405335 95.6052,301.0544 C95.9561351,300.703465 96.4003973,300.528 96.938,300.528 C97.4606693,300.528 97.8974649,300.703465 98.2484,301.0544 C98.5993351,301.405335 98.7748,301.842131 98.7748,302.3648 C98.7748,302.902403 98.6030684,303.342932 98.2596,303.6864 Z M103.0476,303.6864 C102.704132,304.014935 102.263603,304.1792 101.726,304.1792 C101.188397,304.1792 100.744135,304.011202 100.3932,303.6752 C100.042265,303.339198 99.8668,302.902403 99.8668,302.3648 C99.8668,301.842131 100.042265,301.405335 100.3932,301.0544 C100.744135,300.703465 101.188397,300.528 101.726,300.528 C102.248669,300.528 102.685465,300.703465 103.0364,301.0544 C103.387335,301.405335 103.5628,301.842131 103.5628,302.3648 C103.5628,302.902403 103.391068,303.342932 103.0476,303.6864 Z M107.8356,303.6864 C107.492132,304.014935 107.051603,304.1792 106.514,304.1792 C105.976397,304.1792 105.532135,304.011202 105.1812,303.6752 C104.830265,303.339198 104.6548,302.902403 104.6548,302.3648 C104.6548,301.842131 104.830265,301.405335 105.1812,301.0544 C105.532135,300.703465 105.976397,300.528 106.514,300.528 C107.036669,300.528 107.473465,300.703465 107.8244,301.0544 C108.175335,301.405335 108.3508,301.842131 108.3508,302.3648 C108.3508,302.902403 108.179068,303.342932 107.8356,303.6864 Z" id="Scanning..." fill="#FFFFFF"></path>
            <path d="M8.3376,13.138 C9.29147144,13.138 10.0297307,12.9714017 10.5524,12.6382 C11.0750693,12.3049983 11.3364,11.8248031 11.3364,11.1976 C11.3364,10.7402644 11.1926681,10.3678681 10.9052,10.0804 C10.6177319,9.7929319 10.2453356,9.57733405 9.788,9.4336 C9.33066438,9.28986595 8.82760274,9.16246722 8.2788,9.0514 C7.72999726,8.94033278 7.17793611,8.80313415 6.6226,8.6398 C6.06726389,8.47646585 5.56093562,8.26413464 5.1036,8.0028 C4.64626438,7.74146536 4.2738681,7.34946928 3.9864,6.8268 C3.6989319,6.30413072 3.5552,5.66387046 3.5552,4.906 C3.5552,3.75612758 4.00926213,2.78267065 4.9174,1.9856 C5.82553787,1.18852935 7.03092582,0.79 8.5336,0.79 C10.1146746,0.79 11.3461956,1.21792905 12.2282,2.0738 C13.1102044,2.92967095 13.5642665,4.03705987 13.5904,5.396 L11.258,5.396 C11.2449333,4.67732974 11.0032024,4.08606899 10.5328,3.6222 C10.0623976,3.15833101 9.39600431,2.9264 8.5336,2.9264 C7.71039588,2.9264 7.06686899,3.09299833 6.603,3.4262 C6.13913101,3.75940167 5.9072,4.2330636 5.9072,4.8472 C5.9072,5.25226869 6.0509319,5.58873199 6.3384,5.8566 C6.6258681,6.12446801 7.00153101,6.32699931 7.4654,6.4642 C7.92926899,6.60140069 8.43886389,6.72553278 8.9942,6.8366 C9.54953611,6.94766722 10.1048639,7.09139912 10.6602,7.2678 C11.2155361,7.44420088 11.725131,7.67286526 12.189,7.9538 C12.652869,8.23473474 13.0285319,8.63979735 13.316,9.169 C13.6034681,9.69820265 13.7472,10.3417295 13.7472,11.0996 C13.7472,12.367073 13.2441384,13.3797295 12.238,14.1376 C11.2318616,14.8954705 9.8925417,15.2744 8.22,15.2744 C6.50825811,15.2744 5.22120431,14.8236045 4.3588,13.922 C3.49639569,13.0203955 3.0456002,11.9293397 3.0064,10.6488 L5.3584,10.6488 C5.41066693,11.4197372 5.69159745,12.0273311 6.2012,12.4716 C6.71080255,12.9158689 7.42292876,13.138 8.3376,13.138 Z M15.4328,9.9236 C15.4328,8.42092582 15.9097286,7.15673846 16.8636,6.131 C17.8174714,5.10526154 19.0326593,4.5924 20.5092,4.5924 C21.9073403,4.5924 23.0212625,4.98766271 23.851,5.7782 C24.6807375,6.56873729 25.1739992,7.48012817 25.3308,8.5124 L22.9396,8.5124 C22.7958659,7.95053052 22.5051355,7.49973503 22.0674,7.16 C21.6296645,6.82026497 21.1037364,6.6504 20.4896,6.6504 C19.6663959,6.6504 19.0065358,6.95419696 18.51,7.5618 C18.0134642,8.16940304 17.7652,8.95666183 17.7652,9.9236 C17.7652,10.8905382 18.0134642,11.6745303 18.51,12.2756 C19.0065358,12.8766697 19.6663959,13.1772 20.4896,13.1772 C21.1037364,13.1772 21.6296645,13.007335 22.0674,12.6676 C22.5051355,12.327865 22.7958659,11.8770695 22.9396,11.3152 L25.3308,11.3152 C25.1739992,12.3474718 24.6807375,13.2588627 23.851,14.0494 C23.0212625,14.8399373 21.9073403,15.2352 20.5092,15.2352 C19.0326593,15.2352 17.8174714,14.7223385 16.8636,13.6966 C15.9097286,12.6708615 15.4328,11.4132074 15.4328,9.9236 Z M33.5824,10.2176 L30.8776,10.6292 C29.610127,10.825201 28.9764,11.3086628 28.9764,12.0796 C28.9764,12.9681378 29.5774607,13.4124 30.7796,13.4124 C31.6812045,13.4124 32.3737309,13.1706691 32.8572,12.6872 C33.3406691,12.2037309 33.5824,11.596137 33.5824,10.8644 L33.5824,10.2176 Z M30.3092,15.2352 C29.1070607,15.2352 28.2120029,14.9542695 27.624,14.3924 C27.0359971,13.8305305 26.742,13.085738 26.742,12.158 C26.742,10.3809244 28.0421203,9.3094685 30.6424,8.9436 L33.5824,8.532 L33.5824,8.3752 C33.5824,7.13386046 32.8572073,6.5132 31.4068,6.5132 C30.139327,6.5132 29.4206675,7.01626164 29.2508,8.0224 L26.9772,8.0224 C27.0817339,7.02932837 27.4965964,6.20940323 28.2218,5.5626 C28.9470036,4.91579677 30.0282595,4.5924 31.4656,4.5924 C32.9160073,4.5924 34.0103296,4.92559667 34.7486,5.592 C35.4868704,6.25840333 35.856,7.19266066 35.856,8.3948 L35.856,13.0792 C35.856,13.9024041 35.953999,14.5426644 36.15,15 L33.9352,15 C33.9221333,15 33.9058001,14.9510005 33.8862,14.853 C33.8665999,14.7549995 33.8470001,14.5949344 33.8274,14.3728 C33.8077999,14.1506656 33.798,13.9154679 33.798,13.6672 C33.1054632,14.7125386 31.9425415,15.2352 30.3092,15.2352 Z M40.7756,4.8276 L40.7756,6.18 C41.0108012,5.73573111 41.3995306,5.3600682 41.9418,5.053 C42.4840694,4.7459318 43.1406628,4.5924 43.9116,4.5924 C45.1137393,4.5924 46.04473,4.95826301 46.7046,5.69 C47.36447,6.42173699 47.6944,7.39519392 47.6944,8.6104 L47.6944,15 L45.362,15 L45.362,8.9044 C45.362,8.18572974 45.1954017,7.62060206 44.8622,7.209 C44.5289983,6.79739794 44.0226701,6.5916 43.3432,6.5916 C42.5983963,6.5916 42.0136688,6.81373111 41.589,7.258 C41.1643312,7.70226889 40.952,8.31639608 40.952,9.1004 L40.952,15 L38.6196,15 L38.6196,4.8276 L40.7756,4.8276 Z M52.5944,4.8276 L52.5944,6.18 C52.8296012,5.73573111 53.2183306,5.3600682 53.7606,5.053 C54.3028694,4.7459318 54.9594628,4.5924 55.7304,4.5924 C56.9325393,4.5924 57.86353,4.95826301 58.5234,5.69 C59.18327,6.42173699 59.5132,7.39519392 59.5132,8.6104 L59.5132,15 L57.1808,15 L57.1808,8.9044 C57.1808,8.18572974 57.0142017,7.62060206 56.681,7.209 C56.3477983,6.79739794 55.8414701,6.5916 55.162,6.5916 C54.4171963,6.5916 53.8324688,6.81373111 53.4078,7.258 C52.9831312,7.70226889 52.7708,8.31639608 52.7708,9.1004 L52.7708,15 L50.4384,15 L50.4384,4.8276 L52.5944,4.8276 Z M63.4332,3.1224 C63.0019978,3.1224 62.6492014,2.98846801 62.3748,2.7206 C62.1003986,2.45273199 61.9632,2.10973542 61.9632,1.6916 C61.9632,1.26039784 62.1003986,0.907601372 62.3748,0.6332 C62.6492014,0.358798628 63.0019978,0.2216 63.4332,0.2216 C63.8513354,0.2216 64.1975986,0.358798628 64.472,0.6332 C64.7464014,0.907601372 64.8836,1.26039784 64.8836,1.6916 C64.8836,2.10973542 64.7464014,2.45273199 64.472,2.7206 C64.1975986,2.98846801 63.8513354,3.1224 63.4332,3.1224 Z M62.2572,15 L62.2572,4.8276 L64.5896,4.8276 L64.5896,15 L62.2572,15 Z M69.568,4.8276 L69.568,6.18 C69.8032012,5.73573111 70.1919306,5.3600682 70.7342,5.053 C71.2764694,4.7459318 71.9330628,4.5924 72.704,4.5924 C73.9061393,4.5924 74.83713,4.95826301 75.497,5.69 C76.15687,6.42173699 76.4868,7.39519392 76.4868,8.6104 L76.4868,15 L74.1544,15 L74.1544,8.9044 C74.1544,8.18572974 73.9878017,7.62060206 73.6546,7.209 C73.3213983,6.79739794 72.8150701,6.5916 72.1356,6.5916 C71.3907963,6.5916 70.8060688,6.81373111 70.3814,7.258 C69.9567312,7.70226889 69.7444,8.31639608 69.7444,9.1004 L69.7444,15 L67.412,15 L67.412,4.8276 L69.568,4.8276 Z M86.6396,6.278 L86.6396,4.8276 L88.7956,4.8276 L88.7956,14.5688 C88.7956,15.9538736 88.3676709,17.0873956 87.5118,17.9694 C86.6559291,18.8514044 85.4636076,19.2924 83.9348,19.2924 C82.5366597,19.2924 81.4423373,18.9330703 80.6518,18.2144 C79.8612627,17.4957297 79.4006673,16.672538 79.27,15.7448 L81.6024,15.7448 C81.8898681,16.7770718 82.6803935,17.2932 83.974,17.2932 C84.7580039,17.2932 85.3688645,17.0743355 85.8066,16.6366 C86.2443355,16.1988645 86.4632,15.614137 86.4632,14.8824 L86.4632,13.2948 C85.7837299,14.3401386 84.712274,14.8628 83.2488,14.8628 C81.8375929,14.8628 80.7040709,14.3695383 79.8482,13.383 C78.9923291,12.3964617 78.5644,11.1780073 78.5644,9.7276 C78.5644,8.27719275 78.9923291,7.05873827 79.8482,6.0722 C80.7040709,5.08566173 81.8375929,4.5924 83.2488,4.5924 C84.8037411,4.5924 85.9339965,5.15426105 86.6396,6.278 Z M86.5612,9.7276 C86.5612,8.82599549 86.2998693,8.08773621 85.7772,7.5128 C85.2545307,6.93786379 84.5685376,6.6504 83.7192,6.6504 C82.8829292,6.6504 82.2034693,6.93786379 81.6808,7.5128 C81.1581307,8.08773621 80.8968,8.82599549 80.8968,9.7276 C80.8968,10.6161378 81.1581307,11.3511304 81.6808,11.9326 C82.2034693,12.5140696 82.8829292,12.8048 83.7192,12.8048 C84.5685376,12.8048 85.2545307,12.5140696 85.7772,11.9326 C86.2998693,11.3511304 86.5612,10.6161378 86.5612,9.7276 Z M92.4412,15.1568 C91.9838644,15.1568 91.6147347,15.0163347 91.3338,14.7354 C91.0528653,14.4544653 90.9124,14.0918689 90.9124,13.6476 C90.9124,13.2033311 91.0561319,12.8407347 91.3436,12.5598 C91.6310681,12.2788653 91.9969311,12.1384 92.4412,12.1384 C92.8854689,12.1384 93.2513319,12.2788653 93.5388,12.5598 C93.8262681,12.8407347 93.97,13.2033311 93.97,13.6476 C93.97,14.0918689 93.8262681,14.4544653 93.5388,14.7354 C93.2513319,15.0163347 92.8854689,15.1568 92.4412,15.1568 Z M97.2628,15.1568 C96.8054644,15.1568 96.4363347,15.0163347 96.1554,14.7354 C95.8744653,14.4544653 95.734,14.0918689 95.734,13.6476 C95.734,13.2033311 95.8777319,12.8407347 96.1652,12.5598 C96.4526681,12.2788653 96.8185311,12.1384 97.2628,12.1384 C97.6940022,12.1384 98.0533319,12.2788653 98.3408,12.5598 C98.6282681,12.8407347 98.772,13.2033311 98.772,13.6476 C98.772,14.0918689 98.6282681,14.4544653 98.3408,14.7354 C98.0533319,15.0163347 97.6940022,15.1568 97.2628,15.1568 Z M102.0648,15.1568 C101.607464,15.1568 101.238335,15.0163347 100.9574,14.7354 C100.676465,14.4544653 100.536,14.0918689 100.536,13.6476 C100.536,13.2033311 100.679732,12.8407347 100.9672,12.5598 C101.254668,12.2788653 101.620531,12.1384 102.0648,12.1384 C102.509069,12.1384 102.874932,12.2788653 103.1624,12.5598 C103.449868,12.8407347 103.5936,13.2033311 103.5936,13.6476 C103.5936,14.0918689 103.449868,14.4544653 103.1624,14.7354 C102.874932,15.0163347 102.509069,15.1568 102.0648,15.1568 Z" id="Scanning…" fill="#9E9F9F"></path>
        </g>
        <rect id="Rectangle" fill="#EEF1F6" x="451" y="17" width="46" height="6"></rect>
        <rect id="Rectangle-Copy-9" fill="#EEF1F6" x="61" y="11" width="115" height="20"></rect>
        <rect id="Rectangle-Copy-4" fill="#EEF1F6" x="527" y="17" width="46" height="6"></rect>
        <rect id="Rectangle-Copy-5" fill="#EEF1F6" x="603" y="17" width="46" height="6"></rect>
    </g>
</svg>