<?xml version="1.0" encoding="UTF-8"?>
<svg width="104px" height="27px" viewBox="0 0 104 27" version="1.1" xmlns="http://www.w3.org/2000/svg" xmlns:xlink="http://www.w3.org/1999/xlink">
    <!-- Generator: Sketch 51.3 (57544) - http://www.bohemiancoding.com/sketch -->
    <title>together</title>
    <desc>Created with Sketch.</desc>
    <defs></defs>
    <g id="Page-1" stroke="none" stroke-width="1" fill="none" fill-rule="evenodd">
        <g id="Work" transform="translate(-208.000000, -2784.000000)" fill="#000000">
            <g id="Group-3" transform="translate(-7.000000, 2390.000000)">
                <path d="M221.404023,415.259766 C219.066269,415.259766 217.384629,413.797012 217.384629,410.693496 L217.384629,404.869277 L215.839707,404.869277 L215.839707,401.300918 L217.384629,401.300918 L217.384629,396.925918 L221.759629,396.461074 L221.759629,401.300918 L225.081894,401.300918 L225.081894,404.869277 L221.759629,404.869277 L221.759629,409.873184 C221.759629,410.761855 221.964707,411.431641 222.798691,411.431641 C223.099473,411.431641 223.673691,411.336074 224.152207,411.08998 L225.232148,414.316406 C224.288789,414.849609 223.318086,415.259766 221.404023,415.259766 Z M232.285156,415.273438 L232.285156,415.273164 C227.882676,415.273164 224.888672,412.320039 224.888672,408.163789 C224.888672,404.007812 227.882676,401.041015 232.285156,401.041015 C236.632676,401.041015 239.667832,403.952988 239.667832,408.163926 C239.667832,412.361465 236.632676,415.273438 232.285156,415.273438 Z M232.28502,411.376679 C233.952922,411.376606 235.251543,410.036784 235.251543,408.163789 C235.251543,406.263398 233.99373,404.951035 232.284883,404.951035 C230.521211,404.951035 229.304414,406.30455 229.304414,408.163789 C229.304414,409.995772 230.56216,411.376606 232.28502,411.376679 Z M232.28502,411.376679 C232.285065,411.376679 232.285111,411.376679 232.285156,411.376679 L232.284883,411.376679 C232.284928,411.376679 232.284974,411.376679 232.28502,411.376679 Z M250.234238,401.301055 L254.62291,401.301601 L254.62291,413.195996 C254.62291,417.653027 252.777207,420.797422 247.240098,420.797422 C245.011582,420.797422 243.274981,420.414609 241.593477,419.484922 L242.577715,415.94377 C243.726289,416.613691 245.243867,417.133086 246.761445,417.133086 C249.12668,417.133086 250.343477,415.957305 250.343477,414.53543 L250.343477,413.236738 L250.274844,413.236738 C249.358965,414.207305 248.101152,414.726836 246.501543,414.726836 C242.810137,414.726836 240.185137,411.896895 240.185137,408.013809 C240.185137,403.966934 242.796465,401.041152 246.269395,401.041152 C247.759492,401.041152 249.140488,401.574219 250.165879,402.65457 L250.234238,402.65457 L250.234238,401.301055 Z M247.527139,410.830898 C249.181402,410.830865 250.425372,409.627749 250.425372,407.877773 C250.425372,406.141445 249.153887,404.951992 247.527071,404.951992 C245.84543,404.951992 244.601426,406.155117 244.601426,407.891445 C244.601426,409.682299 245.886547,410.830866 247.527139,410.830898 Z M247.527139,410.830898 C247.527162,410.830898 247.527185,410.830898 247.527207,410.830898 L247.527071,410.830898 C247.527093,410.830898 247.527116,410.830898 247.527139,410.830898 Z M269.536836,408.02748 L269.536289,408.027207 C269.536289,408.410019 269.46793,409.025527 269.427051,409.326308 L260.102832,409.326308 C260.417285,410.871094 261.770801,411.691406 263.343066,411.691406 C264.614551,411.691406 265.721973,411.130859 266.665605,410.037109 L268.989688,412.648437 C267.827715,414.111465 265.722246,415.259765 262.878496,415.259765 C258.817949,415.259765 255.755586,412.388672 255.755586,408.150664 C255.755586,403.994414 258.695039,401.041289 262.71457,401.041289 C266.706758,401.041289 269.536836,403.953262 269.536836,408.02748 Z M262.755176,404.540879 L262.755176,404.540742 C261.442539,404.540742 260.403477,405.30623 260.116504,406.714707 L265.24332,406.687363 C264.956211,405.361191 264.067539,404.540879 262.755176,404.540879 Z M275.181367,415.259766 C272.843613,415.259766 271.161973,413.797012 271.161973,410.693496 L271.161973,404.869277 L269.617051,404.869277 L269.617051,401.300918 L271.161973,401.300918 L271.161973,396.925918 L275.536973,396.461074 L275.536973,401.300918 L278.859238,401.300918 L278.859238,404.869277 L275.536973,404.869277 L275.536973,409.873184 C275.536973,410.761855 275.742051,411.431641 276.576035,411.431641 C276.876816,411.431641 277.451035,411.336074 277.929551,411.08998 L279.009492,414.316406 C278.066133,414.849609 277.09543,415.259766 275.181367,415.259766 Z M288.701172,401.041152 L288.701035,401.041016 C291.558457,401.041016 293.636582,402.421875 293.636582,406.741914 L293.636582,414.999863 L289.261582,414.999727 L289.261582,407.808457 C289.261582,405.607285 288.536973,404.951035 286.991914,404.951035 C285.447129,404.951035 284.435137,405.962754 284.435137,408.095566 L284.421465,408.095566 L284.421465,414.999863 L280.046465,414.999863 L280.046465,394.382949 L284.421465,394.382949 L284.421465,402.886855 L284.476289,402.886855 C285.556367,401.656387 287.060273,401.041152 288.701172,401.041152 Z M308.482148,408.02748 L308.481602,408.027207 C308.481602,408.410019 308.413242,409.025527 308.372363,409.326308 L299.048144,409.326308 C299.362598,410.871094 300.716113,411.691406 302.288379,411.691406 C303.559863,411.691406 304.667285,411.130859 305.610918,410.037109 L307.935,412.648437 C306.773027,414.111465 304.667559,415.259765 301.823809,415.259765 C297.763262,415.259765 294.700898,412.388672 294.700898,408.150664 C294.700898,403.994414 297.640352,401.041289 301.659883,401.041289 C305.65207,401.041289 308.482148,403.953262 308.482148,408.02748 Z M301.700488,404.540879 L301.700488,404.540742 C300.387852,404.540742 299.348789,405.30623 299.061816,406.714707 L304.188633,406.687363 C303.901523,405.361191 303.012852,404.540879 301.700488,404.540879 Z M318.050645,401.041152 L318.050508,401.041015 C318.091387,401.041015 318.16002,401.041015 318.200899,401.054687 L318.200899,405.771621 C317.804414,405.744277 317.394258,405.744277 317.175508,405.744277 C315.097383,405.744277 314.030977,407.05664 314.030977,408.847656 L314.030977,414.999863 L309.655977,414.999863 L309.655977,401.300918 L314.030977,401.300918 L314.030977,403.132949 L314.085801,403.132949 C315.124863,401.765762 316.546738,401.041152 318.050645,401.041152 Z" id="together"></path>
            </g>
        </g>
    </g>
</svg>