<?xml version="1.0" standalone="no"?>
<!DOCTYPE svg PUBLIC "-//W3C//DTD SVG 20010904//EN"
 "http://www.w3.org/TR/2001/REC-SVG-20010904/DTD/svg10.dtd">
<svg version="1.0" xmlns="http://www.w3.org/2000/svg"
 width="700.000000pt" height="700.000000pt" viewBox="0 0 700.000000 700.000000"
 preserveAspectRatio="xMidYMid meet">
<metadata>
Created by potrace 1.11, written by Peter Selinger 2001-2013
</metadata>
<g transform="translate(0.000000,700.000000) scale(0.100000,-0.100000)"
fill="#000000" stroke="none">
<path d="M0 3500 l0 -3500 3500 0 3500 0 0 3500 0 3500 -3500 0 -3500 0 0
-3500z m2180 1065 c75 -7 184 -42 255 -81 28 -15 84 -62 125 -104 l76 -77 70
66 c163 152 402 224 662 200 297 -27 498 -192 589 -484 l28 -90 3 -712 3 -713
-265 0 -265 0 -4 648 c-4 711 -2 689 -67 783 -60 88 -171 127 -308 108 -163
-23 -265 -120 -301 -287 -7 -36 -11 -245 -11 -652 l0 -600 -270 0 -269 0 -3
653 c-3 648 -3 652 -25 707 -44 109 -115 164 -230 180 -212 29 -378 -85 -422
-289 -7 -35 -11 -251 -11 -651 l0 -600 -270 0 -270 0 0 980 0 980 250 0 249 0
3 -111 3 -110 37 50 c46 61 141 130 228 164 87 34 235 58 315 51 17 -2 59 -6
95 -9z m4050 -1740 l0 -255 -935 0 -935 0 0 255 0 255 935 0 935 0 0 -255z"/>
</g>
</svg>
